<svg width="42" height="42" viewBox="0 0 42 42" fill="none" xmlns="http://www.w3.org/2000/svg">
<rect width="42" height="42" rx="21" fill="#A7F840" fill-opacity="0.77"/>
<path d="M24.6663 12.25H17.3337C14.1487 12.25 12.25 14.1487 12.25 17.3337V24.6575C12.25 27.8513 14.1487 29.75 17.3337 29.75H24.6575C27.8425 29.75 29.7412 27.8513 29.7412 24.6663V17.3337C29.75 14.1487 27.8513 12.25 24.6663 12.25ZM17.1762 26.3812C17.1762 26.74 16.8788 27.0375 16.52 27.0375C16.1613 27.0375 15.8637 26.74 15.8637 26.3812V24.57C15.8637 24.2113 16.1613 23.9137 16.52 23.9137C16.8788 23.9137 17.1762 24.2113 17.1762 24.57V26.3812ZM21.6562 26.3812C21.6562 26.74 21.3588 27.0375 21 27.0375C20.6412 27.0375 20.3438 26.74 20.3438 26.3812V22.75C20.3438 22.3912 20.6412 22.0938 21 22.0938C21.3588 22.0938 21.6562 22.3912 21.6562 22.75V26.3812ZM26.1363 26.3812C26.1363 26.74 25.8388 27.0375 25.48 27.0375C25.1213 27.0375 24.8238 26.74 24.8238 26.3812V20.9388C24.8238 20.58 25.1213 20.2825 25.48 20.2825C25.8388 20.2825 26.1363 20.58 26.1363 20.9388V26.3812ZM26.1363 18.1738C26.1363 18.5325 25.8388 18.83 25.48 18.83C25.1213 18.83 24.8238 18.5325 24.8238 18.1738V17.325C22.5925 19.6175 19.8012 21.2362 16.6775 22.015C16.625 22.0325 16.5725 22.0325 16.52 22.0325C16.2225 22.0325 15.96 21.8312 15.8813 21.5337C15.7938 21.1838 16.0037 20.825 16.3625 20.7375C19.3112 20.0025 21.9362 18.4538 24.0188 16.2663H22.925C22.5662 16.2663 22.2688 15.9688 22.2688 15.61C22.2688 15.2513 22.5662 14.9538 22.925 14.9538H25.4887C25.5237 14.9538 25.55 14.9713 25.585 14.9713C25.6287 14.98 25.6725 14.98 25.7162 14.9975C25.76 15.015 25.795 15.0412 25.8388 15.0675C25.865 15.085 25.8913 15.0938 25.9175 15.1112C25.9263 15.12 25.9262 15.1287 25.935 15.1287C25.97 15.1637 25.9963 15.1987 26.0225 15.2337C26.0487 15.2687 26.075 15.295 26.0837 15.33C26.1012 15.365 26.1012 15.4 26.11 15.4438C26.1188 15.4875 26.1363 15.5312 26.1363 15.5838C26.1363 15.5925 26.145 15.6013 26.145 15.61V18.1738H26.1363Z" fill="black"/>
</svg>
