<svg width="233" height="26" viewBox="0 0 233 26" fill="none" xmlns="http://www.w3.org/2000/svg">
<g clip-path="url(#clip0_116_6707)">
<g clip-path="url(#clip1_116_6707)">
<g clip-path="url(#clip2_116_6707)">
<path d="M13.5061 8.86672C14.2405 8.86672 14.9715 8.84389 15.6994 8.80798L15.1249 5.30275H13.5159H13.4931H11.8841L11.3097 8.80798C12.0408 8.84389 12.7718 8.86672 13.5061 8.86672Z" fill="black"/>
<path d="M26.7572 1.53321C26.7572 2.04887 26.3524 2.45031 25.827 2.45031C25.3081 2.45031 24.8936 2.04561 24.8936 1.53321C24.8936 1.0306 25.3081 0.6259 25.827 0.6259C26.3524 0.6259 26.7572 1.0306 26.7572 1.53321ZM25.1253 1.53321C25.1253 1.93791 25.4256 2.25775 25.8335 2.25775C26.2317 2.25775 26.5254 1.93791 26.5254 1.53973C26.5254 1.13504 26.2317 0.808667 25.8302 0.808667C25.4256 0.808667 25.1253 1.13504 25.1253 1.53321ZM25.6834 2.00971H25.4745V1.1024C25.5561 1.08608 25.6736 1.07303 25.8237 1.07303C25.9967 1.07303 26.0717 1.1024 26.1403 1.1383C26.1892 1.17746 26.2284 1.24926 26.2284 1.33739C26.2284 1.4353 26.1501 1.51363 26.0392 1.54626V1.55606C26.1273 1.58869 26.1762 1.65396 26.2055 1.77799C26.2349 1.91506 26.2513 1.97054 26.2708 2.00644H26.0424C26.0163 1.97381 25.9967 1.88896 25.9706 1.78452C25.9543 1.6866 25.8987 1.64091 25.7813 1.64091H25.6834V2.00971ZM25.6899 1.49405H25.7878C25.9053 1.49405 25.9967 1.45488 25.9967 1.36023C25.9967 1.27864 25.9347 1.22316 25.8041 1.22316C25.7487 1.22316 25.7095 1.22969 25.6866 1.23295V1.49405H25.6899Z" fill="black"/>
<path d="M19.0579 15.43L18.8654 16.1611C15.9802 16.4842 13.7641 16.5201 13.5063 16.5233C13.2485 16.5201 11.0325 16.4842 8.14735 16.1611L7.95479 15.43C6.92999 15.3158 5.82033 15.1689 4.67151 14.9764L5.72242 18.9385L6.74069 19.0723C10.4123 19.5488 13.2811 19.5814 13.5031 19.5847C13.5031 19.5847 13.5063 19.5847 13.5096 19.5847C13.5096 19.5847 13.5129 19.5847 13.5162 19.5847C13.7381 19.5814 16.6069 19.5488 20.2786 19.0723L21.2968 18.9385L22.3477 14.9764C21.1924 15.1689 20.0827 15.3158 19.0579 15.43Z" fill="black"/>
<path d="M15.2983 21.3537L15.1057 21.9477C14.9034 21.977 14.7076 22.0031 14.5183 22.026C13.8427 22.1108 13.1638 22.1108 12.4915 22.026C12.3022 22.0031 12.1064 21.977 11.9041 21.9477L11.7115 21.3537C10.8368 21.3079 9.69454 21.2297 8.38904 21.0958L9.62273 24.6794L10.5137 24.8262C11.1436 24.9307 12.002 25.0384 12.6416 25.1102C13.2422 25.1787 13.8492 25.182 14.453 25.1135C15.0633 25.0417 15.7487 24.9502 16.4895 24.8262L17.3805 24.6794L18.6142 21.0958C17.3152 21.2329 16.173 21.3112 15.2983 21.3537Z" fill="black"/>
<path d="M24.1296 2.45027L19.2764 3.10627L19.7497 6.12847L22.6576 5.77598L23.5454 7.12715L23.1342 9.79364C18.4083 10.7238 13.8913 10.8021 13.5095 10.8054C13.1244 10.7988 8.61069 10.7205 3.88482 9.79364L3.47359 7.12715L4.36132 5.77598L7.26928 6.12847L7.74251 3.10627L2.8796 2.45027L0.252319 6.44831L1.19879 12.3458L2.20727 12.571C7.73925 13.8014 13.1668 13.8635 13.4997 13.8667C13.4997 13.8667 13.5029 13.8667 13.5062 13.8667C13.5062 13.8667 13.5095 13.8667 13.5128 13.8667C13.8456 13.8635 19.2732 13.8014 24.8052 12.571L25.8137 12.3458L26.7601 6.44831L24.1296 2.45027Z" fill="black"/>
<path d="M58.6774 5.35053C58.5222 6.30822 58.3583 7.24866 58.2116 8.20636C58.1512 8.62047 57.8578 8.56877 57.5731 8.56877C54.2341 8.56877 50.8951 8.56877 47.5648 8.56877C47.28 8.56877 46.9953 8.56877 46.7106 8.60323C45.7011 8.73269 45.0282 9.90605 45.4337 10.8379C45.6666 11.3728 46.1325 11.4849 46.6502 11.4849C48.8158 11.4849 50.9728 11.4677 53.1383 11.4936C53.8372 11.5022 54.5447 11.5626 55.2177 11.7093C56.7189 12.0286 57.5903 13.107 57.668 14.6428C57.8492 18.0335 55.744 20.3976 52.172 20.5011C48.3067 20.6219 44.4328 20.527 40.5675 20.527C40.5157 20.527 40.4554 20.5011 40.3431 20.4666C40.533 19.414 40.7228 18.3614 40.9212 17.2484C41.137 17.2484 41.344 17.2484 41.5425 17.2484C45.1662 17.2484 48.7899 17.2484 52.405 17.2484C53.4921 17.2484 54.2254 16.7825 54.4585 15.9715C54.7863 14.8412 54.2513 14.0906 53.0693 14.0647C51.6285 14.0389 50.1876 14.0561 48.7468 14.0561C47.8408 14.0561 46.9263 14.0647 46.0204 14.0561C42.4829 14.0043 40.7832 10.9673 42.5692 7.90438C43.5269 6.25646 45.054 5.38504 46.8745 5.33327C50.7398 5.22111 54.6137 5.29876 58.4791 5.29876C58.5567 5.29876 58.6084 5.33327 58.6774 5.35053Z" fill="black"/>
<path d="M131.229 15.9542C132.455 17.4641 133.662 18.9394 134.921 20.4838C134.706 20.5097 134.568 20.5356 134.43 20.5356C133.239 20.5356 132.04 20.5184 130.849 20.5443C130.461 20.5528 130.236 20.4148 130.021 20.1042C129.236 18.9653 128.399 17.861 127.614 16.7221C127.415 16.4287 127.2 16.3424 126.864 16.3511C125.466 16.3683 121.195 16.3597 119.754 16.3597C119.918 15.4365 120.065 14.5651 120.229 13.6333C120.436 13.6247 120.634 13.6074 120.832 13.6074C122.575 13.6074 127.191 13.616 128.934 13.5988C130.513 13.5816 131.496 12.9258 131.85 11.5713C131.997 11.019 131.989 10.4065 131.91 9.83703C131.815 9.16402 131.135 8.62047 130.392 8.61181C127.735 8.57734 125.086 8.57734 122.428 8.59458C122.291 8.59458 122.067 8.84483 122.04 9.0001C121.609 11.3469 121.203 13.6937 120.789 16.0405C120.522 17.5331 120.254 19.0171 119.978 20.5184C118.909 20.5184 117.873 20.5184 116.743 20.5184C117.64 15.4365 118.52 10.3978 119.409 5.35051C119.521 5.33325 119.607 5.30736 119.702 5.30736C123.472 5.30736 127.252 5.29011 131.022 5.31599C132.92 5.32462 134.507 6.40311 134.991 8.0683C135.819 10.8983 134.905 14.1855 131.833 15.6695C131.643 15.7558 131.454 15.842 131.229 15.9542Z" fill="black"/>
<path d="M167.397 5.16074C168.786 5.31604 170.21 5.30742 171.548 5.65253C173.989 6.27374 175.516 8.33581 175.655 10.8465C175.939 16.075 171.996 20.3803 166.75 20.527C165.163 20.5702 163.558 20.5961 161.979 20.4408C158.882 20.1387 156.725 17.7661 156.552 14.6342C156.259 9.43159 160.115 5.3333 165.335 5.29879C166.017 5.29016 166.699 5.29879 167.38 5.29879C167.389 5.24702 167.389 5.20388 167.397 5.16074ZM165.309 17.3088C165.309 17.2916 165.309 17.2743 165.309 17.2571C165.93 17.2571 166.56 17.2571 167.182 17.2571C169.908 17.2398 172.065 15.264 172.306 12.5462C172.514 10.2943 171.055 8.62912 168.804 8.57743C167.441 8.54287 166.077 8.54287 164.714 8.586C161.694 8.68091 159.468 11.2952 159.848 14.289C160.029 15.7213 161.047 16.8861 162.48 17.1277C163.411 17.2743 164.369 17.2485 165.309 17.3088Z" fill="black"/>
<path d="M82.7575 5.29875C83.9136 5.29875 85.0093 5.29875 86.1137 5.29875C88.8056 5.29875 91.4975 5.28149 94.1978 5.316C96.1911 5.34188 97.8048 6.50666 98.2615 8.27537C98.995 11.1226 97.7785 14.7636 94.2581 15.9715C93.4474 16.2475 92.5586 16.377 91.6961 16.4114C89.9355 16.4805 88.9007 16.4373 87.1316 16.4288C87.0195 16.4288 86.9074 16.4029 86.7173 16.3856C86.8905 15.3417 87.0628 14.3321 87.2436 13.2623C87.511 13.2623 87.753 13.2623 88.0034 13.2623C89.8752 13.2365 91.0314 13.2882 92.8956 13.1501C94.4831 13.038 95.4839 11.4849 95.1384 9.93193C94.9831 9.23311 94.3617 8.62045 93.6112 8.61188C90.9975 8.56876 88.3744 8.57733 85.7597 8.58599C85.6307 8.58599 85.4066 8.81027 85.3803 8.94839C84.7505 12.4513 84.1379 15.9542 83.5426 19.4571C83.3614 20.5356 83.3786 20.5356 82.2656 20.5356C81.5668 20.5356 80.8679 20.5356 80.0828 20.5356C80.9715 15.4366 81.8601 10.3978 82.7575 5.29875Z" fill="black"/>
<path d="M76.1314 5.32465C77.2011 5.32465 78.2451 5.32465 79.315 5.32465C78.9526 7.38671 78.6075 9.41427 78.2451 11.4418C78.0381 12.598 77.8569 13.7541 77.5808 14.893C76.8733 17.7316 75.1218 19.5952 72.2487 20.2682C69.5741 20.898 66.8735 20.967 64.2162 20.2078C62.1282 19.6124 61.0066 18.2406 60.9979 16.0664C60.9979 14.6601 61.2482 13.245 61.4725 11.8473C61.809 9.68176 62.2232 7.52476 62.6028 5.32465C63.7071 5.32465 64.8029 5.32465 65.9677 5.32465C65.7346 6.66197 65.5017 7.99067 65.2774 9.31936C64.9668 11.1657 64.6303 13.0121 64.3887 14.8671C64.1989 16.3511 64.7252 17.1708 66.1747 17.3002C67.8831 17.4555 69.6259 17.4469 71.3255 17.2915C73.2496 17.1104 74.2763 15.8334 74.6128 13.9698C75.001 11.7955 75.3807 9.61274 75.7603 7.42985C75.8811 6.73962 76.0019 6.04077 76.1314 5.32465Z" fill="black"/>
<path d="M113.973 17.2484C113.792 18.3097 113.629 19.2932 113.447 20.2768C113.43 20.3803 113.266 20.4839 113.145 20.527C113.024 20.5701 112.887 20.5357 112.748 20.5357C108.573 20.5357 104.405 20.5357 100.23 20.5357C100.022 20.5357 99.8237 20.5357 99.5479 20.5357C100.445 15.4193 101.334 10.3806 102.222 5.31601C106.83 5.31601 111.411 5.31601 116.044 5.31601C115.863 6.38587 115.682 7.42984 115.492 8.52563C115.259 8.5342 115.043 8.55143 114.819 8.56009C111.704 8.56009 108.598 8.56875 105.483 8.55143C105 8.55143 104.854 8.69812 104.776 9.17266C104.387 11.5799 103.939 13.9784 103.516 16.3856C103.473 16.6445 103.438 16.912 103.387 17.2398C106.925 17.2484 110.419 17.2484 113.973 17.2484Z" fill="black"/>
<path d="M213.556 5.29875C213.367 6.42038 213.185 7.47298 212.996 8.56875C212.737 8.56875 212.504 8.56875 212.28 8.56875C209.665 8.56875 207.043 8.54286 204.428 8.58598C202.142 8.62053 200.304 10.0873 199.657 12.2787C199.096 14.1941 199.743 16.075 201.322 16.8343C201.848 17.0845 202.478 17.2311 203.065 17.2398C205.628 17.2829 208.181 17.257 210.744 17.257C210.951 17.257 211.158 17.257 211.451 17.257C211.252 18.3787 211.063 19.4485 210.864 20.5442C208.207 20.5442 205.61 20.5529 203.021 20.5442C202.513 20.5442 201.995 20.5098 201.494 20.4493C198.734 20.1215 196.655 17.9386 196.266 15.1777C195.619 10.579 198.699 5.98036 204.117 5.33327C204.471 5.29013 204.834 5.30738 205.196 5.30738C207.776 5.30738 210.355 5.30738 212.935 5.30738C213.125 5.29875 213.306 5.29875 213.556 5.29875Z" fill="black"/>
<path d="M153.066 17.257C152.868 18.37 152.687 19.414 152.488 20.5184C152.29 20.527 152.092 20.5442 151.884 20.5442C149.365 20.5442 146.837 20.5529 144.317 20.5442C140.34 20.5357 137.709 17.8265 137.795 13.8404C137.899 9.5264 140.91 6.09251 145.198 5.42817C145.681 5.35052 146.173 5.30738 146.665 5.30738C149.305 5.29875 151.936 5.29875 154.576 5.29875C154.74 5.29875 154.912 5.29875 155.154 5.29875C154.973 6.35136 154.818 7.34357 154.611 8.33578C154.585 8.44793 154.257 8.56009 154.075 8.56009C151.496 8.57732 148.917 8.58598 146.337 8.56875C144.947 8.56009 143.722 8.97427 142.713 9.93192C141.47 11.0967 140.918 12.5375 141.142 14.2372C141.384 16.0578 142.756 17.257 144.611 17.2657C147.191 17.2743 149.771 17.2657 152.35 17.2657C152.558 17.257 152.755 17.257 153.066 17.257Z" fill="black"/>
<path d="M178.399 16.9205C179.054 16.0664 179.624 15.2899 180.227 14.5479C180.331 14.4271 180.598 14.3926 180.788 14.3839C181.746 14.3667 187.198 14.3753 188.277 14.3753C187.604 12.7705 186.974 11.2693 186.31 9.68176C185.654 10.5359 185.042 11.3297 184.429 12.1235C182.393 14.7895 180.349 17.4469 178.32 20.1128C178.096 20.4148 177.854 20.5443 177.475 20.5356C176.457 20.5097 175.448 20.527 174.3 20.527C175.007 19.6038 175.637 18.7841 176.267 17.9732C179.278 14.0992 182.289 10.2253 185.31 6.35136C185.517 6.08389 185.732 5.81643 185.982 5.58347C186.983 4.67754 188.105 4.90187 188.64 6.12703C189.287 7.59378 189.9 9.08642 190.529 10.5617C191.866 13.711 193.212 16.8602 194.55 20.0094C194.61 20.1474 194.645 20.2854 194.722 20.5097C193.445 20.5097 192.22 20.5184 191.004 20.4925C190.9 20.4925 190.762 20.2854 190.702 20.1474C190.304 19.2242 189.9 18.3096 189.546 17.3692C189.399 16.9723 189.183 16.8774 188.787 16.886C187.043 16.9033 180.797 16.8946 179.054 16.8946C178.873 16.9205 178.691 16.9205 178.399 16.9205Z" fill="black"/>
<path d="M229.303 20.527C228.199 20.527 227.146 20.527 226.042 20.527C226.404 18.4046 226.767 16.3252 227.138 14.1855C224.885 14.1855 219.131 14.1855 216.853 14.1855C217.025 13.2192 217.189 12.3133 217.353 11.3642C218.586 11.3642 223.35 11.3642 224.558 11.3642C225.446 11.3642 226.344 11.3556 227.232 11.3729C227.56 11.3814 227.681 11.278 227.733 10.9328C228.008 9.19857 228.319 7.46439 228.638 5.73881C228.665 5.57488 228.846 5.32467 228.958 5.32467C229.941 5.29016 230.924 5.30741 231.977 5.30741C231.071 10.4151 230.192 15.471 229.303 20.527Z" fill="black"/>
<path d="M216.801 5.32465C217.914 5.32465 218.967 5.32465 220.071 5.32465C219.174 10.4151 218.293 15.471 217.396 20.5356C216.3 20.5356 215.265 20.5356 214.126 20.5356C215.024 15.4538 215.904 10.4065 216.801 5.32465Z" fill="black"/>
<path d="M102.705 14.0388C102.86 13.176 103.015 12.3392 103.162 11.5022C105.862 11.5022 111.643 11.5022 114.362 11.5022C114.215 12.3651 114.068 13.1847 113.921 14.0388C111.229 14.0388 105.423 14.0388 102.705 14.0388Z" fill="black"/>
</g>
</g>
</g>
<defs>
<clipPath id="clip0_116_6707">
<rect width="232.6" height="25.4671" fill="white"/>
</clipPath>
<clipPath id="clip1_116_6707">
<rect width="232.6" height="25.4671" fill="white"/>
</clipPath>
<clipPath id="clip2_116_6707">
<rect width="232.6" height="25.4671" fill="white"/>
</clipPath>
</defs>
</svg>
