<svg width="42" height="42" viewBox="0 0 42 42" fill="none" xmlns="http://www.w3.org/2000/svg">
<rect width="42" height="42" rx="21" fill="#A7F840" fill-opacity="0.77"/>
<path d="M20.3404 13.3061C19.1944 14.3526 18.2249 16.0366 20.122 18.1143L23.7939 22.1355C25.691 24.2131 27.4559 23.4003 28.602 22.3538C29.748 21.3073 30.7174 19.6233 28.8203 17.5457L25.1485 13.5245C23.2514 11.4469 21.4864 12.2597 20.3404 13.3061Z" fill="black"/>
<path d="M13.3975 19.6462C12.2515 20.6927 11.2821 22.3767 13.1792 24.4543L16.851 28.4755C18.7481 30.5532 20.5131 29.7404 21.6591 28.6939C22.8052 27.6474 23.7746 25.9634 21.8775 23.8858L18.2057 19.8646C16.3085 17.787 14.5436 18.5997 13.3975 19.6462Z" fill="black"/>
<path d="M21.4993 19.6222L19.5825 21.3724L20.5005 22.3777L22.4172 20.6275L21.4993 19.6222Z" fill="black"/>
<path d="M30.0259 16.7525C29.7511 17.0034 29.3151 16.9836 29.0642 16.7088L26.0044 13.3578C25.7535 13.083 25.7733 12.6471 26.0481 12.3962C26.3228 12.1453 26.7588 12.1651 27.0097 12.4399L30.0695 15.7909C30.3204 16.0656 30.3006 16.5016 30.0259 16.7525Z" fill="black"/>
<path d="M15.9516 29.6039C15.6769 29.8548 15.2409 29.835 14.99 29.5602L11.9302 26.2092C11.6793 25.9344 11.6991 25.4985 11.9738 25.2476C12.2486 24.9967 12.6846 25.0165 12.9355 25.2912L15.9953 28.6422C16.2462 28.917 16.2264 29.3529 15.9516 29.6039Z" fill="black"/>
</svg>
