<svg width="42" height="42" viewBox="0 0 42 42" fill="none" xmlns="http://www.w3.org/2000/svg">
<rect width="42" height="42" rx="21" fill="#A7F840" fill-opacity="0.77"/>
<path d="M21 25.6812C21.7877 25.6812 22.4262 25.0427 22.4262 24.255C22.4262 23.4673 21.7877 22.8287 21 22.8287C20.2123 22.8287 19.5737 23.4673 19.5737 24.255C19.5737 25.0427 20.2123 25.6812 21 25.6812Z" fill="black"/>
<path d="M25.0687 18.76H16.9313C16.8612 18.76 16.8 18.76 16.73 18.76V17.745C16.73 15.1812 17.4562 13.475 21 13.475C24.7887 13.475 25.27 15.3212 25.27 16.9313C25.27 17.2725 25.5413 17.5438 25.8825 17.5438C26.2238 17.5438 26.495 17.2725 26.495 16.9313C26.495 13.825 24.6488 12.25 21 12.25C16.0738 12.25 15.505 15.3825 15.505 17.745V18.8387C13.055 19.145 12.25 20.3875 12.25 23.4412V25.0687C12.25 28.6562 13.3438 29.75 16.9313 29.75H25.0687C28.6562 29.75 29.75 28.6562 29.75 25.0687V23.4412C29.75 19.8538 28.6562 18.76 25.0687 18.76ZM21 26.8975C19.5388 26.8975 18.3575 25.7075 18.3575 24.255C18.3575 22.7937 19.5475 21.6125 21 21.6125C22.4525 21.6125 23.6425 22.8025 23.6425 24.255C23.6425 25.7163 22.4613 26.8975 21 26.8975Z" fill="black"/>
</svg>
