<svg width="42" height="42" viewBox="0 0 42 42" fill="none" xmlns="http://www.w3.org/2000/svg">
<rect width="42" height="42" rx="21" fill="#A7F840" fill-opacity="0.77"/>
<path d="M23.3888 12.25H18.6113V16.065H23.3888V12.25Z" fill="black"/>
<path d="M24.7012 12.25V16.065H29.6362C29.1899 13.6588 27.4137 12.2587 24.7012 12.25Z" fill="black"/>
<path d="M12.25 17.3775V24.6663C12.25 27.8513 14.1487 29.75 17.3337 29.75H24.6663C27.8513 29.75 29.75 27.8513 29.75 24.6663V17.3775H12.25ZM23.135 24.6575L21.315 25.7075C20.93 25.9263 20.5538 26.04 20.2038 26.04C19.9413 26.04 19.705 25.9788 19.4863 25.8563C18.9788 25.5675 18.6988 24.9725 18.6988 24.2025V22.1025C18.6988 21.3325 18.9788 20.7375 19.4863 20.4488C19.9938 20.1513 20.6412 20.2038 21.315 20.5975L23.135 21.6475C23.8087 22.0325 24.1763 22.575 24.1763 23.1613C24.1763 23.7475 23.8 24.2638 23.135 24.6575Z" fill="black"/>
<path d="M17.2988 12.25C14.5863 12.2587 12.81 13.6588 12.3638 16.065H17.2988V12.25Z" fill="black"/>
</svg>
