<svg width="23" height="23" viewBox="0 0 23 23" fill="none" xmlns="http://www.w3.org/2000/svg">
<g id="Star 2">
<path id="Star 1" d="M10.7117 2.62933C10.944 1.91423 11.9557 1.91423 12.188 2.62933L13.7153 7.32964C13.8192 7.64944 14.1172 7.86597 14.4534 7.86597L19.3956 7.86597C20.1475 7.86597 20.4602 8.82813 19.8519 9.27008L15.8535 12.175C15.5815 12.3727 15.4677 12.723 15.5716 13.0428L17.0988 17.7431C17.3312 18.4582 16.5127 19.0529 15.9044 18.6109L11.9061 15.706C11.634 15.5083 11.2657 15.5083 10.9936 15.706L6.99529 18.6109C6.38699 19.0529 5.56853 18.4582 5.80088 17.7431L7.3281 13.0428C7.43201 12.723 7.31818 12.3727 7.04614 12.175L3.04782 9.27008C2.43952 8.82813 2.75214 7.86597 3.50404 7.86597L8.44624 7.86597C8.7825 7.86597 9.08052 7.64944 9.18443 7.32964L10.7117 2.62933Z" fill="#53CC00"/>
</g>
</svg>
