<svg width="233" height="26" viewBox="0 0 233 26" fill="none" xmlns="http://www.w3.org/2000/svg">
<g clip-path="url(#clip0_388_7676)">
<g clip-path="url(#clip1_388_7676)">
<path d="M13.506 8.86674C14.2403 8.86674 14.9714 8.8439 15.6993 8.80799L15.1248 5.30276H13.5158H13.493H11.8839L11.3096 8.80799C12.0406 8.8439 12.7717 8.86674 13.506 8.86674Z" fill="white"/>
<path d="M26.7572 1.53322C26.7572 2.04889 26.3524 2.45033 25.827 2.45033C25.3081 2.45033 24.8936 2.04563 24.8936 1.53322C24.8936 1.03062 25.3081 0.625916 25.827 0.625916C26.3524 0.625916 26.7572 1.03062 26.7572 1.53322ZM25.1253 1.53322C25.1253 1.93793 25.4256 2.25777 25.8335 2.25777C26.2317 2.25777 26.5254 1.93793 26.5254 1.53975C26.5254 1.13505 26.2317 0.808682 25.8302 0.808682C25.4256 0.808682 25.1253 1.13505 25.1253 1.53322ZM25.6834 2.00973H25.4745V1.10242C25.5561 1.08609 25.6736 1.07305 25.8237 1.07305C25.9967 1.07305 26.0717 1.10242 26.1403 1.13832C26.1892 1.17748 26.2284 1.24928 26.2284 1.3374C26.2284 1.43532 26.1501 1.51365 26.0392 1.54628V1.55607C26.1273 1.58871 26.1762 1.65398 26.2055 1.778C26.2349 1.91508 26.2513 1.97056 26.2708 2.00646H26.0424C26.0163 1.97383 25.9967 1.88897 25.9706 1.78453C25.9543 1.68662 25.8987 1.64093 25.7813 1.64093H25.6834V2.00973ZM25.6899 1.49406H25.7878C25.9053 1.49406 25.9967 1.45489 25.9967 1.36025C25.9967 1.27866 25.9347 1.22318 25.8041 1.22318C25.7487 1.22318 25.7095 1.2297 25.6866 1.23296V1.49406H25.6899Z" fill="white"/>
<path d="M19.0583 15.43L18.8657 16.1611C15.9806 16.4842 13.7645 16.5201 13.5067 16.5233C13.2489 16.5201 11.0328 16.4842 8.14772 16.1611L7.95516 15.43C6.93035 15.3158 5.8207 15.1689 4.67188 14.9764L5.72278 18.9385L6.74106 19.0723C10.4127 19.5488 13.2815 19.5814 13.5035 19.5847C13.5035 19.5847 13.5067 19.5847 13.51 19.5847C13.51 19.5847 13.5132 19.5847 13.5165 19.5847C13.7384 19.5814 16.6072 19.5488 20.2789 19.0723L21.2972 18.9385L22.348 14.9764C21.1928 15.1689 20.0831 15.3158 19.0583 15.43Z" fill="white"/>
<path d="M15.298 21.3537L15.1054 21.9477C14.9031 21.977 14.7072 22.0031 14.5179 22.026C13.8424 22.1108 13.1635 22.1108 12.4911 22.026C12.3018 22.0031 12.106 21.977 11.9037 21.9477L11.7111 21.3537C10.8365 21.3079 9.69418 21.2297 8.38867 21.0958L9.62236 24.6794L10.5134 24.8262C11.1433 24.9307 12.0016 25.0384 12.6412 25.1102C13.2418 25.1787 13.8488 25.182 14.4526 25.1135C15.0629 25.0417 15.7483 24.9502 16.4892 24.8262L17.3802 24.6794L18.6139 21.0958C17.3149 21.2329 16.1726 21.3112 15.298 21.3537Z" fill="white"/>
<path d="M24.1292 2.45026L19.276 3.10626L19.7493 6.12845L22.6572 5.77597L23.545 7.12714L23.1338 9.79362C18.408 10.7238 13.8909 10.802 13.5091 10.8053C13.124 10.7988 8.61032 10.7205 3.88445 9.79362L3.47323 7.12714L4.36095 5.77597L7.26891 6.12845L7.74215 3.10626L2.87923 2.45026L0.251953 6.44829L1.19843 12.3458L2.20691 12.571C7.73889 13.8014 13.1664 13.8634 13.4993 13.8667C13.4993 13.8667 13.5026 13.8667 13.5059 13.8667C13.5059 13.8667 13.5091 13.8667 13.5124 13.8667C13.8453 13.8634 19.2728 13.8014 24.8048 12.571L25.8133 12.3458L26.7597 6.44829L24.1292 2.45026Z" fill="white"/>
<path d="M58.6771 5.35053C58.5218 6.30822 58.3579 7.24866 58.2112 8.20636C58.1508 8.62047 57.8575 8.56877 57.5727 8.56877C54.2337 8.56877 50.8947 8.56877 47.5644 8.56877C47.2797 8.56877 46.995 8.56877 46.7102 8.60323C45.7007 8.73269 45.0278 9.90605 45.4333 10.8379C45.6663 11.3728 46.1321 11.4849 46.6498 11.4849C48.8154 11.4849 50.9724 11.4677 53.138 11.4936C53.8369 11.5022 54.5444 11.5626 55.2174 11.7093C56.7186 12.0286 57.59 13.107 57.6676 14.6428C57.8488 18.0335 55.7436 20.3976 52.1717 20.5011C48.3063 20.6219 44.4325 20.527 40.5671 20.527C40.5154 20.527 40.455 20.5011 40.3428 20.4666C40.5326 19.414 40.7224 18.3614 40.9209 17.2484C41.1366 17.2484 41.3436 17.2484 41.5421 17.2484C45.1658 17.2484 48.7895 17.2484 52.4046 17.2484C53.4917 17.2484 54.2251 16.7825 54.4581 15.9715C54.786 14.8412 54.251 14.0906 53.069 14.0647C51.6281 14.0389 50.1873 14.0561 48.7464 14.0561C47.8405 14.0561 46.9259 14.0647 46.02 14.0561C42.4825 14.0043 40.7828 10.9673 42.5689 7.90438C43.5265 6.25646 45.0537 5.38504 46.8742 5.33327C50.7395 5.22111 54.6134 5.29876 58.4787 5.29876C58.5564 5.29876 58.6081 5.33327 58.6771 5.35053Z" fill="white"/>
<path d="M131.229 15.9542C132.455 17.4641 133.662 18.9394 134.922 20.4838C134.706 20.5097 134.568 20.5356 134.43 20.5356C133.239 20.5356 132.04 20.5184 130.849 20.5443C130.461 20.5528 130.236 20.4148 130.021 20.1042C129.236 18.9653 128.399 17.861 127.614 16.7221C127.416 16.4287 127.2 16.3424 126.864 16.3511C125.466 16.3683 121.195 16.3597 119.754 16.3597C119.918 15.4365 120.065 14.5651 120.229 13.6333C120.436 13.6247 120.634 13.6074 120.832 13.6074C122.575 13.6074 127.191 13.616 128.934 13.5988C130.513 13.5816 131.496 12.9258 131.85 11.5713C131.997 11.019 131.989 10.4065 131.911 9.83703C131.815 9.16402 131.135 8.62047 130.392 8.61181C127.735 8.57734 125.086 8.57734 122.428 8.59458C122.291 8.59458 122.067 8.84483 122.04 9.0001C121.609 11.3469 121.203 13.6937 120.789 16.0405C120.522 17.5331 120.254 19.0171 119.978 20.5184C118.909 20.5184 117.873 20.5184 116.743 20.5184C117.64 15.4365 118.52 10.3978 119.409 5.35051C119.521 5.33325 119.607 5.30736 119.702 5.30736C123.472 5.30736 127.252 5.29011 131.022 5.31599C132.92 5.32462 134.507 6.40311 134.991 8.0683C135.819 10.8983 134.905 14.1855 131.833 15.6695C131.643 15.7558 131.454 15.842 131.229 15.9542Z" fill="white"/>
<path d="M167.397 5.16074C168.786 5.31604 170.21 5.30742 171.548 5.65253C173.989 6.27374 175.516 8.33581 175.655 10.8465C175.939 16.075 171.996 20.3803 166.75 20.527C165.163 20.5702 163.558 20.5961 161.979 20.4408C158.882 20.1387 156.725 17.7661 156.552 14.6342C156.259 9.43159 160.115 5.3333 165.335 5.29879C166.017 5.29016 166.699 5.29879 167.38 5.29879C167.389 5.24702 167.389 5.20388 167.397 5.16074ZM165.309 17.3088C165.309 17.2916 165.309 17.2743 165.309 17.2571C165.93 17.2571 166.56 17.2571 167.182 17.2571C169.908 17.2398 172.065 15.264 172.307 12.5462C172.514 10.2943 171.055 8.62912 168.804 8.57743C167.441 8.54287 166.077 8.54287 164.714 8.586C161.694 8.68091 159.469 11.2952 159.848 14.289C160.029 15.7213 161.048 16.8861 162.48 17.1277C163.411 17.2743 164.369 17.2485 165.309 17.3088Z" fill="white"/>
<path d="M82.7577 5.29875C83.9139 5.29875 85.0095 5.29875 86.114 5.29875C88.8058 5.29875 91.4977 5.28149 94.1981 5.316C96.1913 5.34188 97.8051 6.50666 98.2618 8.27537C98.9952 11.1226 97.7788 14.7636 94.2584 15.9715C93.4477 16.2475 92.5588 16.377 91.6964 16.4114C89.9357 16.4805 88.9009 16.4373 87.1318 16.4288C87.0197 16.4288 86.9077 16.4029 86.7175 16.3856C86.8907 15.3417 87.063 14.3321 87.2439 13.2623C87.5113 13.2623 87.7532 13.2623 88.0036 13.2623C89.8755 13.2365 91.0317 13.2882 92.8959 13.1501C94.4833 13.038 95.4842 11.4849 95.1387 9.93193C94.9833 9.23311 94.3619 8.62045 93.6115 8.61188C90.9977 8.56876 88.3746 8.57733 85.76 8.58599C85.6309 8.58599 85.4068 8.81027 85.3805 8.94839C84.7507 12.4513 84.1381 15.9542 83.5428 19.4571C83.3616 20.5356 83.3789 20.5356 82.2659 20.5356C81.5671 20.5356 80.8682 20.5356 80.083 20.5356C80.9717 15.4366 81.8604 10.3978 82.7577 5.29875Z" fill="white"/>
<path d="M76.1315 5.32465C77.2013 5.32465 78.2452 5.32465 79.3151 5.32465C78.9527 7.38671 78.6076 9.41427 78.2452 11.4418C78.0382 12.598 77.857 13.7541 77.5809 14.893C76.8734 17.7316 75.122 19.5952 72.2488 20.2682C69.5742 20.898 66.8737 20.967 64.2163 20.2078C62.1284 19.6124 61.0067 18.2406 60.998 16.0664C60.998 14.6601 61.2483 13.245 61.4726 11.8473C61.8091 9.68176 62.2233 7.52476 62.6029 5.32465C63.7072 5.32465 64.803 5.32465 65.9678 5.32465C65.7348 6.66197 65.5018 7.99067 65.2776 9.31936C64.9669 11.1657 64.6304 13.0121 64.3888 14.8671C64.199 16.3511 64.7253 17.1708 66.1748 17.3002C67.8832 17.4555 69.626 17.4469 71.3257 17.2915C73.2497 17.1104 74.2764 15.8334 74.613 13.9698C75.0012 11.7955 75.3808 9.61274 75.7604 7.42985C75.8812 6.73962 76.002 6.04077 76.1315 5.32465Z" fill="white"/>
<path d="M113.973 17.2484C113.792 18.3097 113.629 19.2932 113.447 20.2768C113.43 20.3803 113.266 20.4839 113.145 20.527C113.024 20.5701 112.887 20.5357 112.748 20.5357C108.573 20.5357 104.405 20.5357 100.23 20.5357C100.022 20.5357 99.8237 20.5357 99.5479 20.5357C100.445 15.4193 101.334 10.3806 102.222 5.31601C106.83 5.31601 111.411 5.31601 116.044 5.31601C115.863 6.38587 115.682 7.42984 115.492 8.52563C115.259 8.5342 115.043 8.55143 114.819 8.56009C111.704 8.56009 108.598 8.56875 105.483 8.55143C105 8.55143 104.854 8.69812 104.776 9.17266C104.387 11.5799 103.939 13.9784 103.516 16.3856C103.473 16.6445 103.438 16.912 103.387 17.2398C106.925 17.2484 110.419 17.2484 113.973 17.2484Z" fill="white"/>
<path d="M213.556 5.29877C213.367 6.4204 213.185 7.473 212.996 8.56876C212.737 8.56876 212.504 8.56876 212.28 8.56876C209.665 8.56876 207.043 8.54287 204.428 8.586C202.142 8.62055 200.304 10.0873 199.657 12.2787C199.096 14.1941 199.743 16.075 201.322 16.8343C201.848 17.0845 202.478 17.2312 203.065 17.2398C205.628 17.2829 208.181 17.257 210.744 17.257C210.951 17.257 211.158 17.257 211.451 17.257C211.252 18.3787 211.063 19.4485 210.864 20.5443C208.207 20.5443 205.61 20.5529 203.021 20.5443C202.513 20.5443 201.995 20.5098 201.494 20.4494C198.734 20.1215 196.655 17.9386 196.266 15.1777C195.619 10.5791 198.699 5.98038 204.117 5.33328C204.471 5.29014 204.834 5.30739 205.196 5.30739C207.776 5.30739 210.355 5.30739 212.935 5.30739C213.125 5.29877 213.306 5.29877 213.556 5.29877Z" fill="white"/>
<path d="M153.066 17.257C152.868 18.37 152.687 19.414 152.488 20.5184C152.29 20.527 152.091 20.5443 151.884 20.5443C149.365 20.5443 146.837 20.5529 144.317 20.5443C140.34 20.5357 137.708 17.8265 137.795 13.8404C137.899 9.52641 140.91 6.09253 145.197 5.42818C145.681 5.35053 146.173 5.30739 146.664 5.30739C149.304 5.29877 151.936 5.29877 154.576 5.29877C154.74 5.29877 154.912 5.29877 155.154 5.29877C154.973 6.35137 154.818 7.34358 154.611 8.33579C154.585 8.44795 154.257 8.56011 154.075 8.56011C151.496 8.57734 148.917 8.586 146.337 8.56876C144.947 8.56011 143.722 8.97429 142.713 9.93194C141.47 11.0967 140.918 12.5376 141.142 14.2372C141.384 16.0578 142.756 17.2571 144.611 17.2657C147.191 17.2743 149.771 17.2657 152.35 17.2657C152.557 17.2571 152.755 17.257 153.066 17.257Z" fill="white"/>
<path d="M178.398 16.9205C179.054 16.0664 179.623 15.2899 180.227 14.5479C180.33 14.4271 180.598 14.3926 180.788 14.3839C181.746 14.3667 187.198 14.3753 188.277 14.3753C187.604 12.7705 186.974 11.2693 186.31 9.68176C185.654 10.5359 185.042 11.3297 184.429 12.1235C182.392 14.7895 180.348 17.4469 178.32 20.1128C178.096 20.4148 177.854 20.5443 177.475 20.5356C176.457 20.5097 175.448 20.527 174.3 20.527C175.007 19.6038 175.637 18.7841 176.267 17.9732C179.278 14.0992 182.289 10.2253 185.309 6.35136C185.516 6.08389 185.732 5.81643 185.982 5.58347C186.982 4.67754 188.105 4.90187 188.64 6.12703C189.286 7.59378 189.899 9.08642 190.529 10.5617C191.866 13.711 193.212 16.8602 194.55 20.0094C194.61 20.1474 194.645 20.2854 194.722 20.5097C193.445 20.5097 192.22 20.5184 191.004 20.4925C190.9 20.4925 190.762 20.2854 190.701 20.1474C190.304 19.2242 189.899 18.3096 189.545 17.3692C189.398 16.9723 189.183 16.8774 188.786 16.886C187.043 16.9033 180.796 16.8946 179.054 16.8946C178.873 16.9205 178.691 16.9205 178.398 16.9205Z" fill="white"/>
<path d="M229.304 20.527C228.199 20.527 227.146 20.527 226.042 20.527C226.405 18.4046 226.767 16.3252 227.138 14.1855C224.886 14.1855 219.131 14.1855 216.854 14.1855C217.026 13.2192 217.19 12.3133 217.354 11.3642C218.587 11.3642 223.35 11.3642 224.558 11.3642C225.447 11.3642 226.344 11.3556 227.232 11.3729C227.561 11.3814 227.681 11.278 227.733 10.9328C228.009 9.19857 228.32 7.46439 228.639 5.73881C228.665 5.57488 228.846 5.32467 228.958 5.32467C229.942 5.29016 230.925 5.30741 231.978 5.30741C231.072 10.4151 230.192 15.471 229.304 20.527Z" fill="white"/>
<path d="M216.801 5.32465C217.914 5.32465 218.966 5.32465 220.071 5.32465C219.174 10.4151 218.293 15.471 217.396 20.5356C216.3 20.5356 215.265 20.5356 214.126 20.5356C215.023 15.4538 215.904 10.4065 216.801 5.32465Z" fill="white"/>
<path d="M102.705 14.0388C102.86 13.176 103.015 12.3392 103.162 11.5022C105.862 11.5022 111.643 11.5022 114.361 11.5022C114.215 12.3651 114.068 13.1847 113.921 14.0388C111.229 14.0388 105.422 14.0388 102.705 14.0388Z" fill="white"/>
</g>
</g>
<defs>
<clipPath id="clip0_388_7676">
<rect width="232.6" height="25.4671" fill="white"/>
</clipPath>
<clipPath id="clip1_388_7676">
<rect width="232.6" height="25.4671" fill="white"/>
</clipPath>
</defs>
</svg>
