<svg width="274" height="30" viewBox="0 0 274 30" fill="none" xmlns="http://www.w3.org/2000/svg">
<path d="M15.9103 10.4449C16.7753 10.4449 17.6365 10.418 18.4939 10.3757L17.8172 6.24658H15.9218H15.8949H13.9995L13.3229 10.3757C14.1841 10.418 15.0453 10.4449 15.9103 10.4449Z" fill="white"/>
<path d="M31.5194 1.8061C31.5194 2.41355 31.0426 2.88644 30.4237 2.88644C29.8124 2.88644 29.3241 2.40971 29.3241 1.8061C29.3241 1.21404 29.8124 0.737305 30.4237 0.737305C31.0426 0.737305 31.5194 1.21404 31.5194 1.8061ZM29.5971 1.8061C29.5971 2.28284 29.9508 2.65961 30.4314 2.65961C30.9004 2.65961 31.2464 2.28284 31.2464 1.81379C31.2464 1.33706 30.9004 0.952602 30.4275 0.952602C29.9508 0.952602 29.5971 1.33706 29.5971 1.8061ZM30.2545 2.36742H30.0084V1.29862C30.1046 1.27939 30.243 1.26402 30.4198 1.26402C30.6236 1.26402 30.712 1.29862 30.7927 1.34091C30.8504 1.38704 30.8965 1.47162 30.8965 1.57543C30.8965 1.69077 30.8043 1.78304 30.6736 1.82148V1.83302C30.7774 1.87146 30.835 1.94835 30.8696 2.09445C30.9042 2.25592 30.9235 2.32128 30.9465 2.36357H30.6774C30.6467 2.32513 30.6236 2.22517 30.5928 2.10214C30.5736 1.9868 30.5082 1.93298 30.3698 1.93298H30.2545V2.36742V2.36742ZM30.2622 1.75997H30.3775C30.5159 1.75997 30.6236 1.71383 30.6236 1.60234C30.6236 1.50623 30.5505 1.44087 30.3967 1.44087C30.3314 1.44087 30.2853 1.44856 30.2583 1.4524V1.75997H30.2622Z" fill="white"/>
<path d="M22.45 18.1764L22.2232 19.0376C18.8245 19.4182 16.214 19.4605 15.9103 19.4643C15.6066 19.4605 12.9961 19.4182 9.59748 19.0376L9.37065 18.1764C8.16344 18.0418 6.85628 17.8688 5.50298 17.642L6.74094 22.3093L7.94045 22.467C12.2656 23.0283 15.645 23.0667 15.9065 23.0706C15.9065 23.0706 15.9103 23.0706 15.9142 23.0706C15.9142 23.0706 15.918 23.0706 15.9219 23.0706C16.1833 23.0667 19.5627 23.0283 23.8879 22.467L25.0874 22.3093L26.3253 17.642C24.9644 17.8688 23.6572 18.0418 22.45 18.1764Z" fill="white"/>
<path d="M18.021 25.1544L17.7941 25.8541C17.5558 25.8887 17.3251 25.9194 17.1021 25.9464C16.3063 26.0463 15.5066 26.0463 14.7146 25.9464C14.4916 25.9194 14.2609 25.8887 14.0226 25.8541L13.7957 25.1544C12.7654 25.1005 11.4198 25.0083 9.88193 24.8506L11.3352 29.072L12.3848 29.245C13.1268 29.3681 14.1379 29.4949 14.8914 29.5795C15.5989 29.6602 16.3139 29.6641 17.0252 29.5834C17.7441 29.4988 18.5515 29.3911 19.4242 29.245L20.4738 29.072L21.9271 24.8506C20.3969 25.0121 19.0513 25.1044 18.021 25.1544Z" fill="white"/>
<path d="M28.4245 2.8864L22.7075 3.65916L23.265 7.21927L26.6905 6.80405L27.7363 8.39571L27.2519 11.5368C21.6849 12.6325 16.3639 12.7247 15.9141 12.7286C15.4605 12.7209 10.1434 12.6286 4.57638 11.5368L4.09196 8.39571L5.13769 6.80405L8.56323 7.21927L9.1207 3.65916L3.39224 2.8864L0.297337 7.59604L1.41227 14.5432L2.60025 14.8085C9.11686 16.2579 15.5104 16.331 15.9026 16.3348C15.9026 16.3348 15.9064 16.3348 15.9103 16.3348C15.9103 16.3348 15.9141 16.3348 15.918 16.3348C16.3101 16.331 22.7037 16.2579 29.2203 14.8085L30.4083 14.5432L31.5232 7.59604L28.4245 2.8864Z" fill="white"/>
<path d="M69.1208 6.30285C68.9379 7.431 68.7448 8.53883 68.572 9.66699C68.5009 10.1548 68.1553 10.0939 67.8199 10.0939C63.8866 10.0939 59.9533 10.0939 56.0302 10.0939C55.6948 10.0939 55.3594 10.0939 55.024 10.1345C53.8348 10.287 53.0421 11.6692 53.5198 12.7669C53.7942 13.397 54.343 13.5291 54.9528 13.5291C57.5039 13.5291 60.0448 13.5088 62.5958 13.5393C63.4191 13.5495 64.2525 13.6206 65.0453 13.7934C66.8137 14.1695 67.8402 15.4399 67.9317 17.249C68.1451 21.2433 65.6652 24.0281 61.4575 24.1501C56.9042 24.2924 52.3408 24.1806 47.7875 24.1806C47.7265 24.1806 47.6554 24.1501 47.5232 24.1094C47.7468 22.8695 47.9704 21.6295 48.2042 20.3184C48.4583 20.3184 48.7022 20.3184 48.936 20.3184C53.2047 20.3184 57.4734 20.3184 61.7319 20.3184C63.0125 20.3184 63.8764 19.7696 64.1509 18.8142C64.5371 17.4828 63.9069 16.5985 62.5145 16.5681C60.8172 16.5376 59.1199 16.5579 57.4226 16.5579C56.3554 16.5579 55.2781 16.5681 54.2109 16.5579C50.0438 16.4969 48.0416 12.9193 50.1455 9.31126C51.2736 7.37002 53.0726 6.3435 55.2171 6.28252C59.7704 6.1504 64.3338 6.24187 68.8871 6.24187C68.9786 6.24187 69.0395 6.28252 69.1208 6.30285Z" fill="white"/>
<path d="M154.586 18.7939C156.03 20.5725 157.452 22.3104 158.936 24.1297C158.682 24.1602 158.52 24.1907 158.357 24.1907C156.954 24.1907 155.542 24.1704 154.139 24.2009C153.682 24.211 153.417 24.0484 153.163 23.6825C152.239 22.3409 151.253 21.04 150.328 19.6984C150.094 19.3528 149.84 19.2512 149.444 19.2614C147.797 19.2817 142.766 19.2715 141.069 19.2715C141.262 18.184 141.435 17.1575 141.628 16.0598C141.872 16.0497 142.105 16.0294 142.339 16.0294C144.392 16.0294 149.83 16.0395 151.883 16.0192C153.743 15.9989 154.901 15.2264 155.318 13.6308C155.491 12.9803 155.481 12.2587 155.389 11.5879C155.277 10.7951 154.475 10.1548 153.6 10.1446C150.47 10.104 147.35 10.104 144.219 10.1243C144.057 10.1243 143.793 10.4191 143.762 10.602C143.254 13.3665 142.776 16.131 142.288 18.8955C141.973 20.6538 141.658 22.4019 141.333 24.1704C140.073 24.1704 138.853 24.1704 137.522 24.1704C138.579 18.184 139.615 12.2485 140.662 6.30282C140.794 6.28249 140.896 6.252 141.008 6.252C145.449 6.252 149.901 6.23167 154.342 6.26216C156.578 6.27233 158.448 7.54278 159.018 9.50435C159.993 12.838 158.916 16.7103 155.298 18.4585C155.074 18.5601 154.851 18.6617 154.586 18.7939Z" fill="white"/>
<path d="M197.192 6.07928C198.828 6.26223 200.505 6.25207 202.081 6.65861C204.957 7.39039 206.756 9.81948 206.919 12.7771C207.254 18.9362 202.609 24.0078 196.43 24.1806C194.56 24.2314 192.669 24.2619 190.809 24.079C187.161 23.7232 184.62 20.9283 184.416 17.2389C184.071 11.1103 188.614 6.28256 194.763 6.24191C195.566 6.23174 196.369 6.24191 197.172 6.24191C197.182 6.18092 197.182 6.1301 197.192 6.07928ZM194.732 20.3896C194.732 20.3693 194.732 20.3489 194.732 20.3286C195.464 20.3286 196.206 20.3286 196.938 20.3286C200.15 20.3083 202.691 17.9808 202.975 14.7793C203.219 12.1266 201.501 10.165 198.849 10.1041C197.243 10.0634 195.637 10.0634 194.031 10.1142C190.474 10.226 187.852 13.3056 188.299 16.8323C188.512 18.5195 189.712 19.8916 191.399 20.1762C192.496 20.3489 193.625 20.3185 194.732 20.3896Z" fill="white"/>
<path d="M97.4874 6.24187C98.8493 6.24187 100.14 6.24187 101.441 6.24187C104.612 6.24187 107.783 6.22154 110.964 6.26219C113.312 6.29268 115.213 7.66477 115.751 9.7483C116.615 13.1023 115.182 17.3913 111.035 18.8142C110.08 19.1394 109.033 19.2919 108.017 19.3325C105.943 19.4139 104.724 19.363 102.64 19.3529C102.508 19.3529 102.376 19.3224 102.152 19.3021C102.356 18.0723 102.559 16.8831 102.772 15.6228C103.087 15.6228 103.372 15.6228 103.667 15.6228C105.872 15.5924 107.234 15.6533 109.43 15.4907C111.3 15.3586 112.479 13.5291 112.072 11.6997C111.889 10.8765 111.157 10.1548 110.273 10.1447C107.194 10.0939 104.104 10.104 101.024 10.1142C100.872 10.1142 100.608 10.3784 100.577 10.5411C99.8351 14.6675 99.1135 18.7939 98.4122 22.9203C98.1988 24.1907 98.2191 24.1907 96.908 24.1907C96.0848 24.1907 95.2615 24.1907 94.3366 24.1907C95.3835 18.1841 96.4303 12.2485 97.4874 6.24187Z" fill="white"/>
<path d="M89.6818 6.27237C90.942 6.27237 92.1718 6.27237 93.4321 6.27237C93.0052 8.70146 92.5987 11.0899 92.1718 13.4783C91.9279 14.8403 91.7145 16.2022 91.3892 17.5438C90.5558 20.8876 88.4926 23.0829 85.1081 23.8757C81.9574 24.6176 78.7762 24.6989 75.6459 23.8045C73.1863 23.1032 71.865 21.4872 71.8548 18.926C71.8548 17.2694 72.1496 15.6025 72.4138 13.956C72.8102 11.405 73.2981 8.86408 73.7453 6.27237C75.0462 6.27237 76.337 6.27237 77.7091 6.27237C77.4346 7.84772 77.1602 9.41291 76.896 10.9781C76.5301 13.1531 76.1337 15.3281 75.8491 17.5133C75.6255 19.2614 76.2455 20.227 77.953 20.3794C79.9654 20.5624 82.0184 20.5522 84.0206 20.3692C86.2871 20.1558 87.4966 18.6516 87.893 16.4563C88.3503 13.895 88.7975 11.3237 89.2447 8.75228C89.387 7.93919 89.5293 7.11595 89.6818 6.27237Z" fill="white"/>
<path d="M134.259 20.3184C134.046 21.5686 133.853 22.7272 133.639 23.8858C133.619 24.0078 133.426 24.1298 133.283 24.1806C133.141 24.2314 132.979 24.1908 132.816 24.1908C127.897 24.1908 122.988 24.1908 118.069 24.1908C117.825 24.1908 117.591 24.1908 117.266 24.1908C118.323 18.1638 119.37 12.2282 120.416 6.26221C125.844 6.26221 131.241 6.26221 136.698 6.26221C136.485 7.52249 136.272 8.75228 136.048 10.0431C135.774 10.0532 135.519 10.0735 135.255 10.0837C131.586 10.0837 127.927 10.0939 124.258 10.0735C123.689 10.0735 123.516 10.2463 123.425 10.8053C122.967 13.641 122.439 16.4664 121.941 19.3021C121.89 19.607 121.849 19.9221 121.788 20.3083C125.956 20.3184 130.072 20.3184 134.259 20.3184Z" fill="white"/>
<path d="M251.567 6.24188C251.344 7.56315 251.13 8.8031 250.907 10.0939C250.602 10.0939 250.327 10.0939 250.063 10.0939C246.983 10.0939 243.894 10.0634 240.814 10.1142C238.121 10.1549 235.956 11.8827 235.194 14.4642C234.533 16.7205 235.295 18.9362 237.155 19.8306C237.775 20.1253 238.517 20.2981 239.208 20.3083C242.227 20.3591 245.235 20.3286 248.254 20.3286C248.498 20.3286 248.742 20.3286 249.087 20.3286C248.853 21.6499 248.63 22.9101 248.396 24.2009C245.266 24.2009 242.206 24.2111 239.157 24.2009C238.558 24.2009 237.948 24.1603 237.358 24.0891C234.106 23.7029 231.657 21.1315 231.199 17.8792C230.437 12.462 234.065 7.04481 240.448 6.28254C240.865 6.23172 241.292 6.25204 241.719 6.25204C244.758 6.25204 247.796 6.25204 250.835 6.25204C251.059 6.24188 251.272 6.24188 251.567 6.24188Z" fill="white"/>
<path d="M180.31 20.3286C180.077 21.6397 179.863 22.8695 179.629 24.1704C179.396 24.1806 179.162 24.2009 178.918 24.2009C175.95 24.2009 172.972 24.2111 170.004 24.2009C165.319 24.1908 162.219 20.9994 162.321 16.3038C162.443 11.222 165.99 7.17692 171.041 6.39433C171.61 6.30286 172.19 6.25204 172.769 6.25204C175.879 6.24188 178.979 6.24188 182.089 6.24188C182.282 6.24188 182.485 6.24188 182.77 6.24188C182.556 7.48184 182.374 8.65065 182.13 9.81946C182.099 9.95158 181.713 10.0837 181.499 10.0837C178.461 10.104 175.422 10.1142 172.383 10.0939C170.746 10.0837 169.303 10.5716 168.114 11.6997C166.65 13.0718 166 14.7691 166.264 16.7713C166.549 18.9159 168.165 20.3286 170.35 20.3388C173.389 20.3489 176.428 20.3388 179.467 20.3388C179.711 20.3286 179.944 20.3286 180.31 20.3286Z" fill="white"/>
<path d="M210.151 19.9322C210.923 18.926 211.594 18.0113 212.305 17.1372C212.427 16.9949 212.742 16.9543 212.966 16.9441C214.094 16.9238 220.517 16.9339 221.788 16.9339C220.995 15.0435 220.253 13.2751 219.471 11.405C218.698 12.4112 217.977 13.3462 217.255 14.2813C214.856 17.4218 212.448 20.5522 210.059 23.6927C209.795 24.0484 209.51 24.2009 209.063 24.1907C207.864 24.1602 206.675 24.1806 205.323 24.1806C206.156 23.0931 206.898 22.1275 207.64 21.1722C211.187 16.6087 214.734 12.0453 218.292 7.48182C218.536 7.16675 218.79 6.85168 219.084 6.57726C220.263 5.51008 221.585 5.77434 222.215 7.21757C222.977 8.94538 223.699 10.7037 224.441 12.4416C226.016 16.1514 227.601 19.8611 229.177 23.5708C229.248 23.7334 229.289 23.896 229.38 24.1602C227.876 24.1602 226.433 24.1704 225 24.1399C224.878 24.1399 224.715 23.896 224.644 23.7334C224.176 22.6459 223.699 21.5685 223.282 20.4607C223.109 19.9932 222.855 19.8814 222.388 19.8915C220.334 19.9119 212.976 19.9017 210.923 19.9017C210.71 19.9322 210.496 19.9322 210.151 19.9322Z" fill="white"/>
<path d="M270.116 24.1806C268.815 24.1806 267.575 24.1806 266.274 24.1806C266.701 21.6804 267.128 19.2309 267.565 16.7104C264.912 16.7104 258.133 16.7104 255.45 16.7104C255.653 15.5721 255.846 14.5049 256.039 13.3869C257.492 13.3869 263.103 13.3869 264.526 13.3869C265.573 13.3869 266.63 13.3767 267.676 13.3971C268.063 13.4072 268.205 13.2853 268.266 12.8787C268.591 10.8358 268.957 8.79295 269.333 6.76024C269.364 6.56713 269.577 6.27239 269.709 6.27239C270.868 6.23174 272.026 6.25206 273.266 6.25206C272.199 12.2689 271.163 18.2247 270.116 24.1806Z" fill="white"/>
<path d="M255.389 6.27237C256.7 6.27237 257.94 6.27237 259.241 6.27237C258.184 12.2689 257.147 18.2247 256.09 24.1907C254.799 24.1907 253.58 24.1907 252.238 24.1907C253.295 18.2044 254.332 12.2587 255.389 6.27237Z" fill="white"/>
<path d="M120.986 16.5376C121.168 15.5212 121.351 14.5354 121.524 13.5495C124.705 13.5495 131.515 13.5495 134.717 13.5495C134.544 14.5659 134.371 15.5314 134.198 16.5376C131.027 16.5376 124.187 16.5376 120.986 16.5376Z" fill="white"/>
</svg>
